<svg id="Layer_1" data-name="Layer 1" xmlns="http://www.w3.org/2000/svg" viewBox="0 0 300 72"><title>Artboard 1</title><g id="Black"><polygon points="28.87 50.9 1.7 71.49 80.61 71.49 28.87 50.9" style="fill-rule:evenodd"/></g><g id="Black-2" data-name="Black"><polygon points="42.86 0.39 50.9 55.49 82.32 68.73 42.86 0.39" style="fill:gray;fill-rule:evenodd"/></g><path d="M283.7,19.37l-3.8,8.78h7.57Zm9.12,21.23L290,34.07H277.35l-2.81,6.53h-7.18l13.06-30.22h6.53L300,40.6ZM258.61,16.21V40.6h-6.74V16.21h-8.56V10.37h23.87v5.84ZM228.86,34.63A10,10,0,0,0,237,30.69l4.33,4.45q-5.15,5.8-12.13,5.79a15.79,15.79,0,0,1-11.5-4.41,14.9,14.9,0,0,1-4.52-11.13,15,15,0,0,1,4.6-11.22A15.52,15.52,0,0,1,229,9.68a16,16,0,0,1,12.45,5.66l-4.2,4.75a9.83,9.83,0,0,0-8-4,9.27,9.27,0,0,0-6.51,2.49,8.65,8.65,0,0,0-2.7,6.7,9.14,9.14,0,0,0,2.55,6.77A8.42,8.42,0,0,0,228.86,34.63ZM209.31,10.37v6h-15v6.23H207.8v5.75H194.26v6.27h15.52v6H187.52V10.37Zm-26.69,0V16.3h-14v6.53h13.32v5.92H168.61V40.6h-6.74V10.37Zm-34.12,0h6.74V40.6H148.5ZM129.55,25.12q3.46,0,4.71-1.12a4.58,4.58,0,0,0,1.25-3.57q0-2.44-1.3-3.35t-4.54-.91h-5.06v9Zm12.84-4.71q0,7.27-5.75,9.38L144.3,40.6H136L129.29,31h-4.67V40.6h-6.74V10.37h11.46q7,0,10.05,2.38T142.39,20.4ZM105.2,16.21V40.6H98.46V16.21H89.89V10.37h23.87v5.84Z"/><path d="M297.42,56.39H300v5.23A7.94,7.94,0,0,1,293.81,64a7.82,7.82,0,0,1-5.68-2.23,8.12,8.12,0,0,1,0-11.34,7.78,7.78,0,0,1,5.64-2.28,8,8,0,0,1,5.5,1.93l-1.38,2A5.35,5.35,0,0,0,296.11,51,6.83,6.83,0,0,0,294,50.7a5.44,5.44,0,0,0-3.9,1.5,5.39,5.39,0,0,0,3.67,9.34,6.62,6.62,0,0,0,3.65-.94Zm-30.81-7.86h2.58v15.3h-2.8l-8.67-11.17V63.83h-2.58V48.53h2.58L266.61,60Zm-31.68,0h2.58v15.3h-2.58Zm-20.82,2.36V63.83h-2.58V50.89h-4.64V48.53h11.86v2.36Zm-26-2.36h2.58v15.3h-2.8l-8.67-11.17V63.83h-2.58V48.53h2.58L188.11,60Zm-31.68,0H159v15.3h-2.58ZM135.59,58l-2.78-6.3L130,58ZM129,60.35l-1.53,3.48h-2.76l6.74-15.3h2.76l6.74,15.3h-2.76l-1.53-3.48ZM104,57a4,4,0,0,0,2.92-.82,3.38,3.38,0,0,0,.78-2.41,2.49,2.49,0,0,0-1-2.24,5.67,5.67,0,0,0-3.09-.66H101V57Zm-.33-8.47q3.48,0,5.08,1.34a5.06,5.06,0,0,1,1.6,4.12,4.88,4.88,0,0,1-1.63,4.07,8,8,0,0,1-5,1.29H101v4.49H98.46V48.53Z" style="fill:#005aa9"/><g id="Black-3" data-name="Black"><polygon points="39.46 0.35 0 68.69 43.7 34.17 39.46 0.35" style="fill:#005aa9;fill-rule:evenodd"/></g></svg>