<?xml version="1.0" encoding="utf-8"?>
<!-- Generator: Adobe Illustrator 20.0.0, SVG Export Plug-In . SVG Version: 6.00 Build 0)  -->
<svg version="1.1" id="Layer_1" xmlns="http://www.w3.org/2000/svg" xmlns:xlink="http://www.w3.org/1999/xlink" x="0px" y="0px"
	 viewBox="0 0 300 72" style="enable-background:new 0 0 300 72;" xml:space="preserve">
<style type="text/css">
	.st0{fill:#FFFFFF;}
	.st1{fill:#808080;}
	.st2{fill:#005AA9;}
</style>
<title>Artboard 1</title>
<g id="Black">
	<polygon class="st0" points="28.9,50.9 1.7,71.5 80.6,71.5 	"/>
</g>
<g id="Black-2">
	<polygon class="st1" points="42.9,0.4 50.9,55.5 82.3,68.7 	"/>
</g>
<path class="st0" d="M283.7,19.4l-3.8,8.8h7.6L283.7,19.4z M292.8,40.6l-2.8-6.5h-12.6l-2.8,6.5h-7.2l13.1-30.2h6.5l13,30.2H292.8z
	 M258.6,16.2v24.4h-6.7V16.2h-8.6v-5.8h23.9v5.8H258.6z M228.9,34.6c3.2,0.1,6.2-1.4,8.1-3.9l4.3,4.4c-3.4,3.9-7.5,5.8-12.1,5.8
	c-4.3,0.1-8.4-1.4-11.5-4.4c-3-2.9-4.6-7-4.5-11.1c-0.1-4.2,1.6-8.3,4.6-11.2c3-3,7-4.6,11.2-4.5c4.8-0.1,9.4,2,12.4,5.7l-4.2,4.8
	c-1.9-2.5-4.8-4-8-4c-2.4,0-4.7,0.8-6.5,2.5c-1.8,1.7-2.8,4.2-2.7,6.7c-0.1,2.5,0.8,5,2.6,6.8C224.2,33.8,226.5,34.7,228.9,34.6z
	 M209.3,10.4v6h-15v6.2h13.5v5.8h-13.5v6.3h15.5v6h-22.3V10.4H209.3z M182.6,10.4v5.9h-14v6.5h13.3v5.9h-13.3v11.8h-6.7V10.4H182.6z
	 M148.5,10.4h6.7v30.2h-6.7V10.4z M129.6,25.1c2.3,0,3.9-0.4,4.7-1.1c0.9-1,1.4-2.3,1.2-3.6c0-1.6-0.4-2.7-1.3-3.4s-2.4-0.9-4.5-0.9
	h-5.1v9L129.6,25.1z M142.4,20.4c0,4.8-1.9,8-5.8,9.4l7.7,10.8H136l-6.7-9.6h-4.7v9.6h-6.7V10.4h11.5c4.7,0,8,0.8,10.1,2.4
	C141.4,14.3,142.4,16.9,142.4,20.4L142.4,20.4z M105.2,16.2v24.4h-6.7V16.2h-8.6v-5.8h23.9v5.8H105.2z"/>
<path class="st2" d="M297.4,56.4h2.6v5.2c-1.6,1.7-3.9,2.5-6.2,2.4c-2.1,0.1-4.2-0.7-5.7-2.2c-3.1-3.2-3.1-8.2,0-11.3
	c1.5-1.5,3.5-2.3,5.6-2.3c2-0.1,4,0.6,5.5,1.9l-1.4,2c-0.5-0.5-1.1-0.8-1.8-1.1c-0.7-0.2-1.4-0.3-2.1-0.3c-1.4,0-2.9,0.5-3.9,1.5
	c-2.2,2-2.3,5.4-0.3,7.6c1,1.1,2.5,1.7,4,1.7c1.3,0,2.6-0.3,3.6-0.9V56.4z M266.6,48.5h2.6v15.3h-2.8l-8.7-11.2v11.2h-2.6V48.5h2.6
	l8.9,11.5L266.6,48.5z M234.9,48.5h2.6v15.3h-2.6V48.5z M214.1,50.9v12.9h-2.6V50.9h-4.6v-2.4h11.9v2.4H214.1z M188.1,48.5h2.6v15.3
	h-2.8l-8.7-11.2v11.2h-2.6V48.5h2.6l8.9,11.5L188.1,48.5z M156.4,48.5h2.6v15.3h-2.6L156.4,48.5z M135.6,58l-2.8-6.3L130,58H135.6z
	 M129,60.3l-1.5,3.5h-2.8l6.7-15.3h2.8l6.7,15.3h-2.8l-1.5-3.5H129z M104,57c1,0.1,2.1-0.2,2.9-0.8c0.6-0.7,0.8-1.5,0.8-2.4
	c0.1-0.9-0.3-1.7-1-2.2c-0.9-0.5-2-0.7-3.1-0.7H101V57H104z M103.7,48.5c2.3,0,4,0.4,5.1,1.3c1.1,1.1,1.7,2.6,1.6,4.1
	c0.1,1.5-0.5,3-1.6,4.1c-1.5,1-3.2,1.4-5,1.3H101v4.5h-2.5V48.5H103.7z"/>
<g id="Black-3">
	<polygon class="st2" points="39.5,0.3 0,68.7 43.7,34.2 	"/>
</g>
</svg>
