<svg id="Layer_1" data-name="Layer 1" xmlns="http://www.w3.org/2000/svg" viewBox="0 0 150 25"><title>Artboard 1</title><path d="M12.33.88A1.49,1.49,0,0,1,13.19.1a1.66,1.66,0,0,1,1.12,0,1.49,1.49,0,0,1,.85.78l3.17,6.45,7.13,1a1.48,1.48,0,0,1,1,.59A1.63,1.63,0,0,1,26.81,10a1.5,1.5,0,0,1-.46,1l-5.18,5,1.22,7.13a1.54,1.54,0,0,1-.22,1.1,1.43,1.43,0,0,1-.9.66,1.51,1.51,0,0,1-1.12-.15l-6.4-3.32L7.35,24.8A1.51,1.51,0,0,1,6.23,25a1.43,1.43,0,0,1-.9-.66,1.54,1.54,0,0,1-.22-1.1l1.22-7.13L1.15,11a1.5,1.5,0,0,1-.46-1A1.63,1.63,0,0,1,1,8.94a1.48,1.48,0,0,1,1-.59l7.13-1Z" style="fill:#005aab"/><path d="M43,.88A1.49,1.49,0,0,1,43.81.1a1.66,1.66,0,0,1,1.12,0,1.49,1.49,0,0,1,.85.78L49,7.32l7.13,1a1.48,1.48,0,0,1,1,.59A1.63,1.63,0,0,1,57.44,10,1.5,1.5,0,0,1,57,11l-5.18,5L53,23.19a1.54,1.54,0,0,1-.22,1.1,1.43,1.43,0,0,1-.9.66,1.51,1.51,0,0,1-1.12-.15l-6.4-3.32L38,24.8a1.51,1.51,0,0,1-1.12.15,1.43,1.43,0,0,1-.9-.66,1.54,1.54,0,0,1-.22-1.1L37,16.06l-5.18-5a1.5,1.5,0,0,1-.46-1,1.63,1.63,0,0,1,.34-1.07,1.48,1.48,0,0,1,1-.59l7.13-1Z" style="fill:#005aab"/><path d="M73.58.88A1.49,1.49,0,0,1,74.44.1a1.66,1.66,0,0,1,1.12,0,1.49,1.49,0,0,1,.85.78l3.17,6.45,7.13,1a1.48,1.48,0,0,1,1,.59A1.63,1.63,0,0,1,88.06,10a1.5,1.5,0,0,1-.46,1l-5.18,5,1.22,7.13a1.54,1.54,0,0,1-.22,1.1,1.43,1.43,0,0,1-.9.66,1.51,1.51,0,0,1-1.12-.15L75,21.48,68.6,24.8a1.51,1.51,0,0,1-1.12.15,1.43,1.43,0,0,1-.9-.66,1.54,1.54,0,0,1-.22-1.1l1.22-7.13L62.4,11a1.5,1.5,0,0,1-.46-1,1.63,1.63,0,0,1,.34-1.07,1.48,1.48,0,0,1,1-.59l7.13-1Z" style="fill:#005aab"/><path d="M104.21.88a1.49,1.49,0,0,1,.85-.78,1.66,1.66,0,0,1,1.12,0,1.49,1.49,0,0,1,.85.78l3.17,6.45,7.13,1a1.48,1.48,0,0,1,1,.59,1.63,1.63,0,0,1,.34,1.07,1.5,1.5,0,0,1-.46,1l-5.18,5,1.22,7.13a1.54,1.54,0,0,1-.22,1.1,1.43,1.43,0,0,1-.9.66A1.51,1.51,0,0,1,112,24.8l-6.4-3.32-6.4,3.32a1.51,1.51,0,0,1-1.12.15,1.43,1.43,0,0,1-.9-.66,1.54,1.54,0,0,1-.22-1.1l1.22-7.13L93,11a1.5,1.5,0,0,1-.46-1,1.63,1.63,0,0,1,.34-1.07,1.48,1.48,0,0,1,1-.59l7.13-1Z" style="fill:#005aab"/><path d="M134.83.88a1.49,1.49,0,0,1,.85-.78,1.66,1.66,0,0,1,1.12,0,1.49,1.49,0,0,1,.85.78l3.17,6.45,7.13,1a1.48,1.48,0,0,1,1,.59,1.63,1.63,0,0,1,.34,1.07,1.5,1.5,0,0,1-.46,1l-5.18,5,1.22,7.13a1.54,1.54,0,0,1-.22,1.1,1.43,1.43,0,0,1-.9.66,1.51,1.51,0,0,1-1.12-.15l-6.4-3.32-6.4,3.32a1.51,1.51,0,0,1-1.12.15,1.43,1.43,0,0,1-.9-.66,1.54,1.54,0,0,1-.22-1.1l1.22-7.13-5.18-5a1.5,1.5,0,0,1-.46-1,1.63,1.63,0,0,1,.34-1.07,1.48,1.48,0,0,1,1-.59l7.13-1Z" style="fill:#005aab"/></svg>